<?xml version="1.0" encoding="utf-8"?>
<!-- Generator: Adobe Illustrator 24.3.0, SVG Export Plug-In . SVG Version: 6.00 Build 0)  -->
<svg version="1.1" id="Layer_1" xmlns="http://www.w3.org/2000/svg" xmlns:xlink="http://www.w3.org/1999/xlink" x="0px" y="0px"
	 viewBox="0 0 1106 634.5" style="enable-background:new 0 0 1106 634.5;" xml:space="preserve">
<style type="text/css">
	.st0{fill:#EAEDED;}
	.st1{fill:#D5DBDB;}
	.st2{fill:#889596;}
	.st3{fill:#B8DDE2;}
	.st4{fill:#FFFFFF;}
	.st5{fill:#9FCBCE;}
	.st6{fill:#FAFAFA;}
	.st7{fill:#CDE6E0;}
	.st8{fill:#B4D1CA;}
	.st9{fill:#EEFAF5;}
	.st10{fill:#EFF5ED;}
	.st11{fill:#CEE0AD;}
</style>
<g id="Layer_2_1_">
	<g id="kettle">
		<path id="background" class="st0" d="M1106,401.1H0c0,0-3.9,163,286.1,163c214,0,381.9,70.4,601.9,70.4S1106,401.1,1106,401.1z"/>
		<g id="echo">
			<path id="echo-shadow" class="st1" d="M562.5,429.6c-0.1,5.8,122.3,10.4,232.8,10.4s167.2-4.7,167.3-10.4s-56.5-10.4-167-10.4
				S562.6,423.8,562.5,429.6z"/>
			<polygon id="echo-back" class="st2" points="1012.9,155.7 1020.1,155.7 1020.1,418.2 958.2,439.6 			"/>
			<polygon id="echo-front" class="st3" points="787.7,155.7 1012.9,155.7 958.2,439.6 733,439.6 			"/>
			<polygon id="echo-display" class="st4" points="785.5,288.8 963.8,288.8 983.7,185.9 805.3,185.9 			"/>
			<g id="echo-speaker">
				<polygon class="st5" points="741.5,431.4 952.8,431.4 976,310.8 764.8,310.8 				"/>
			</g>
			
				<ellipse id="echo-camera" transform="matrix(0.7428 -0.6695 0.6695 0.7428 112.6646 645.4316)" class="st4" cx="896.4" cy="176.1" rx="3" ry="2.4"/>
			<path id="echo-bezel" class="st4" d="M953,431.7H741.2l0.1-0.3l51.6-267.8h211.9l-0.1,0.3L953,431.7z M741.8,431.1h210.7
				l51.4-266.9H793.3L741.8,431.1z"/>
			<g id="echo-display-text">
				<path class="st3" d="M817.5,225.3c1.6,0,3.1-0.3,4.5-1c1.3-0.6,2.5-1.6,3.4-2.8c0.9-1.2,1.6-2.6,1.9-4.1
					c0.5-1.7,0.2-3.4-0.8-4.9c-1.1-1.3-2.7-2-4.4-1.8c-1.9,0.1-3.7,0.5-5.3,1.4c0.4-2,1.3-3.9,2.7-5.4c1.1-1.1,2.7-1.8,4.3-1.7
					c0.8,0,1.6,0.1,2.4,0.2c0.8,0.1,1.5,0.3,2.2,0.6l0.7-3.4c-0.7-0.4-1.5-0.7-2.3-0.9c-0.9-0.2-1.9-0.3-2.8-0.3
					c-1.9,0-3.8,0.5-5.5,1.6c-1.7,1.1-3.2,2.7-4.2,4.5c-1.2,2.1-2.1,4.5-2.6,6.9c-0.8,3.7-0.7,6.5,0.2,8.3
					C812.9,224.4,814.8,225.3,817.5,225.3z M816.2,215.2c1.2-0.5,2.4-0.8,3.7-0.8c0.9-0.1,1.8,0.2,2.4,0.9c0.5,0.8,0.6,1.7,0.3,2.6
					c-0.5,2.4-1.9,3.6-4,3.6c-1.1,0.1-2.1-0.5-2.4-1.5C815.7,218.5,815.8,216.8,816.2,215.2L816.2,215.2z"/>
				<path class="st3" d="M833.9,213.5c0.8,0,1.6-0.3,2.3-0.8c0.7-0.6,1.1-1.3,1.3-2.1c0.2-0.7,0.1-1.5-0.3-2.2
					c-0.5-0.6-1.2-0.9-1.9-0.8c-0.8,0-1.6,0.3-2.3,0.8c-0.7,0.6-1.1,1.3-1.3,2.2c-0.2,0.7-0.1,1.5,0.3,2.1
					C832.5,213.2,833.2,213.5,833.9,213.5z"/>
				<path class="st3" d="M829.5,224.4c0.5,0.6,1.2,0.9,1.9,0.8c0.8,0,1.6-0.3,2.3-0.8c0.7-0.6,1.1-1.3,1.3-2.2
					c0.2-0.7,0.1-1.5-0.3-2.1c-0.5-0.6-1.2-0.9-1.9-0.8c-0.8,0-1.6,0.3-2.3,0.8c-0.7,0.6-1.1,1.3-1.3,2.1
					C828.9,223,829,223.8,829.5,224.4z"/>
				<polygon class="st3" points="844.7,224.8 849.5,224.8 854.5,201.8 850.2,201.8 843.4,204.8 842.5,208.5 848.7,206.7 				"/>
				<path class="st3" d="M867.9,224.3c1.4-0.6,2.6-1.5,3.6-2.7c0.9-1.1,1.6-2.5,1.9-3.9c0.5-1.7,0.2-3.6-0.9-5.1
					c-1.2-1.3-3-2-4.9-1.9c-1,0-1.9,0.1-2.8,0.3l1.5-5.4h8.7l0.8-3.8h-12.6l-2.7,9.9l-0.7,3c1.8-0.2,3.5-0.3,5.3-0.3
					c1.1-0.1,2.1,0.2,3,0.9c0.6,0.7,0.8,1.7,0.5,2.6c-0.2,1.1-0.8,2-1.6,2.7c-0.9,0.7-2.1,1-3.2,0.9c-2.1-0.1-4.1-0.5-6.1-1.3
					l-0.8,3.7c2,1,4.1,1.4,6.3,1.4C864.8,225.3,866.4,225,867.9,224.3z"/>
				<path class="st3" d="M883.9,210.5c-1,0-1.9,0.1-2.8,0.3c-0.9,0.2-1.7,0.4-2.5,0.8l-0.4,1.9c1.6-0.5,3.2-0.8,4.8-0.9
					c0.7-0.1,1.5,0.1,2.1,0.6c0.4,0.6,0.5,1.4,0.2,2.1l-0.4,1.8c-1.1-0.3-2.1-0.5-3.2-0.5c-1.4,0-2.8,0.4-4,1.2
					c-1.1,0.8-1.8,1.9-2.1,3.2c-0.3,1-0.1,2.1,0.5,3c0.7,0.8,1.7,1.2,2.8,1.1c0.8,0,1.6-0.2,2.4-0.5c0.9-0.3,1.7-0.8,2.4-1.3
					l-0.1,1.4h2.2l2.2-9.9c0.4-1.1,0.2-2.3-0.5-3.3C886.7,210.9,885.5,210.5,883.9,210.5z M883.9,221.7c-1.2,0.8-2.6,1.3-4,1.4
					c-0.5,0.1-1.1-0.2-1.5-0.6c-0.3-0.5-0.4-1.1-0.2-1.6c0.3-1.6,1.5-2.4,3.5-2.4c0.9,0,1.8,0.1,2.7,0.4L883.9,221.7z"/>
				<path class="st3" d="M908.7,213.4c0.3,0.6,0.3,1.3,0.1,2l-2,9.4h2.6l2.2-10.2c0.3-1,0.2-2.1-0.3-3c-0.6-0.8-1.6-1.2-2.6-1.1
					c-2,0.1-4,0.8-5.7,1.9c-0.3-1.3-1.3-1.9-2.9-1.9c-1.9,0.1-3.8,0.7-5.3,1.8v-1.4h-2.2l-3,13.9h2.6l2.4-10.9
					c1.2-0.8,2.7-1.2,4.1-1.2c0.6-0.1,1.1,0.2,1.5,0.6c0.2,0.6,0.3,1.3,0.1,2l-2,9.4h2.6l2.2-10l0.1-0.4c0-0.1,0.1-0.3,0.1-0.4
					c1.3-0.8,2.7-1.2,4.2-1.2C907.9,212.7,908.4,212.9,908.7,213.4z"/>
			</g>
		</g>
		<path id="cream-kettle-shadow" class="st1" d="M57.5,426.4c0,6.2,177.9,11.3,338.4,11.3s242.8-5,242.8-11.3s-82.3-11.3-242.8-11.3
			S57.5,420.2,57.5,426.4z"/>
		<g id="kettle-2">
			<rect id="kettle-top" x="506.5" y="61" class="st2" width="9.8" height="13.5"/>
			<path id="kettle-body" class="st2" d="M683.7,258.2l-34.6-125c-4.7-17.2-19.8-28.4-35.9-26.7l-11.5,1.3l-3.1-24.1
				c-0.5-3.5-3.4-6-6.9-6.2H440.4c-3.5,0.1-6.4,2.7-6.9,6.1l-3.4,18.3l0,0l-32.8,0.1c-2.2,0.1-4.2,1.2-5.4,3
				c-1.7,2.5-2.1,5.5-1.1,8.3l25.3,65.3l-25.1,214.5c-2,9.6,0.3,19.6,6.4,27.3c5,6.4,12.7,10.1,20.8,10.2h193.6
				c8.2-0.1,16-3.9,21-10.4c5.9-7.6,8.1-17.4,5.9-26.8l-10-77.3l37.8-16.9C681.2,292.7,688.4,275.4,683.7,258.2z M658.1,281.2
				L626,295.5l-21.7-167.8l11.1-1.3c6.3-0.7,12.2,4.3,14.3,12l34.6,125C666.4,271.3,663.8,278.5,658.1,281.2L658.1,281.2z"/>
			<polygon id="kettle-line" class="st6" points="600.2,96 431.2,96 431.4,95 600,95 			"/>
		</g>
		<g id="mug">
			<path id="mug-shadow" class="st1" d="M655.7,468.2c0,1.8-20.2,3.2-73.8,3.2s-120.3-1.4-120.3-3.2s66.7-3.2,120.3-3.2
				S655.7,466.5,655.7,468.2z"/>
			<g id="mug-body">
				<path id="mug-body-container" class="st3" d="M647.8,470h-60c-23.3,0-42.2-18.9-42.2-42.2c0,0,0,0,0,0v-75.2l0,0H690l0,0v75.2
					C690,451.1,671.1,470,647.8,470z"/>
			</g>
			<ellipse id="mug-interior" class="st5" cx="617.8" cy="352.5" rx="72.2" ry="8.3"/>
			<path id="mug-handle" class="st3" d="M706,376.5c-13,0-23.5,10.5-23.5,23.5c0,13,10.5,23.5,23.5,23.5c13,0,23.5-10.5,23.5-23.5
				c0,0,0,0,0,0C729.5,387.1,719,376.5,706,376.5z M703,410.3c-6.2,0-11.3-4.6-11.3-10.3s5-10.2,11.3-10.2s11.3,4.6,11.3,10.2
				S709.2,410.3,703,410.3L703,410.3z"/>
		</g>
		<g id="cream">
			<path id="cream-package-side" class="st7" d="M356.8,196.8l-17.1-36.7h0.2v-10.6c0-2.6-2.2-4.7-4.8-4.6c0,0,0,0,0,0H218
				c-2.6,0-4.7,2-4.8,4.6v10.6l19.7,48.9l-9.8,212.3h129.4c5.4,0.1,9.9-4.2,10-9.7V222.4C362.6,213.6,360.6,204.8,356.8,196.8z"/>
			<path id="cream-package-front" class="st8" d="M213.2,160.1l-17.1,36.7c-3.8,8-5.7,16.8-5.7,25.7v189.2c0.1,5.4,4.6,9.7,10,9.7
				H227c5.4,0.1,9.9-4.2,10.1-9.7V222.4c0-8.9-2-17.6-5.7-25.7L213.2,160.1z"/>
			<g id="cream-labels">
				<rect x="246.7" y="260.2" class="st9" width="34" height="11.2"/>
				<rect x="246.7" y="277.4" class="st9" width="108.6" height="17.4"/>
				<rect x="246.5" y="402.6" class="st9" width="21" height="7.2"/>
				<ellipse class="st10" cx="301" cy="337.7" rx="31.2" ry="30.1"/>
				<polygon class="st10" points="302,144.9 302.1,160.1 323.1,208.1 282.9,208.1 262,160.1 262,144.9 				"/>
			</g>
			<rect id="cream-fold" x="213.2" y="159.6" class="st4" width="126.5" height="1.1"/>
		</g>
		<g id="music">
			<path id="music-eigth-yellow" class="st11" d="M855,47.6c-2.5-5.5-14.3,1.9-12,7.9l-0.2,0.1l9,24l-18.2,14.7L825,71.6
				c4.3,1.4,11.6-5.8,9.6-10.2c-2.5-5.5-14.4,1.9-11.9,7.9l-0.2,0.1L834,99.6l20.8-16.4l-9.5-25.4C849.7,59.2,857,52,855,47.6z"/>
			<path id="music-eighth-yellow" class="st7" d="M971.4,90.2L958.3,46l-31.5,21.2l10.8,36.8c-6-2.1-16.8,7.2-14.5,13.5
				c2.9,8,20.4-1.2,17.7-9.9l0.5-0.1l-10.3-34.9L958,54l9.7,32.7c-6-2-16.7,7.2-14.4,13.5c2.9,8,20.5-1.2,17.7-9.9L971.4,90.2z"/>
			<path id="music-eighth-orange" class="st3" d="M805.7,130.2l-6-40.8l-30.6,14.8l4.9,34c-5-2.6-15.8,4.2-14.5,10.1
				c1.5,7.4,18.2,1.6,16.9-6.5l0.4-0.1l-4.6-32.2l26.2-13l4.4,30.2c-5.1-2.6-15.7,4.2-14.5,10.1c1.5,7.4,18.3,1.5,16.9-6.5
				L805.7,130.2z"/>
			<path id="music-eighth-yellow-2" class="st11" d="M704,10.1L671.5,0l-19.7,28.3c-1.9-5.4-14.4-7.7-17.5-2.5
				c-3.9,6.5,12.3,13.6,16.8,6.8l0.4,0.3l18.3-26.3l28.1,8.4l-17.1,24.7c-2-5.3-14.4-7.6-17.5-2.5c-3.9,6.5,12.4,13.6,16.9,6.8
				l0.3,0.2L704,10.1z M670.5,5.6l2-2.8l27.9,8.6l-1.8,2.6L670.5,5.6z"/>
			<path id="music-quarter-pink" class="st7" d="M731.8,97.6L731.8,97.6L715.1,55l-1.7,0.7l15.3,38.7c-6.3-2.3-17.1,8.6-14.1,15
				C718.3,117.4,735.5,106.3,731.8,97.6z"/>
		</g>
	</g>
</g>
</svg>
